<svg width="396" height="256" viewBox="0 0 396 256" fill="none" xmlns="http://www.w3.org/2000/svg">
<path d="M93.2086 91.9309C91.2904 101.544 90.4383 107.329 90.6523 109.286C90.7236 109.938 90.9732 110.46 91.4012 110.854C91.8775 111.186 92.4417 111.317 93.0938 111.246C99.3432 110.562 106.135 108.802 113.469 105.965C115.843 105.046 117.22 104.565 117.6 104.524C118.415 104.434 118.885 104.96 119.01 106.102C119.224 108.058 116.428 110.399 110.622 113.123C104.87 115.842 99.1955 117.508 93.5982 118.12C91.0984 118.393 88.8173 117.9 86.7548 116.641C84.7467 115.376 83.6208 113.629 83.3771 111.401C83.1335 109.173 83.5054 105.283 84.4929 99.7307C85.5348 94.1725 86.538 88.261 87.5027 81.9963C88.4673 75.7317 88.7208 70.5071 88.2631 66.3227C88.1977 65.725 88.2381 65.0881 88.3841 64.4123C89.088 62.3005 94.9014 60.6474 105.824 59.4527C116.747 58.2581 122.295 58.4488 122.467 60.0247C122.586 61.1116 121.498 61.973 119.203 62.6089C117.288 63.2033 114.718 63.8418 111.493 64.5245C108.317 65.1468 106.085 65.6109 104.799 65.9165C103.507 66.1679 100.408 67.0017 95.5038 68.4179L95.5306 68.6625C95.9347 72.3578 95.5386 78.0379 94.3422 85.7027C94.6742 85.7214 95.764 85.6297 97.6116 85.4276C99.5136 85.2196 102.026 84.8074 105.148 84.1909C108.27 83.5745 110.619 83.1801 112.195 83.0078C113.825 82.8294 114.682 83.1207 114.765 83.8815C114.973 85.7835 112.9 87.4401 108.545 88.8513C104.19 90.2624 99.0776 91.289 93.2086 91.9309ZM139.187 56.0514C140.304 66.2678 139.635 79.7592 137.18 96.5255C135.675 107.909 134.379 113.66 133.292 113.778C132.531 113.862 131.569 113.362 130.406 112.279C129.297 111.191 128.707 110.32 128.636 109.668C128.564 109.016 128.984 105.561 129.894 99.3021C130.805 93.0433 131.563 85.3989 132.17 76.3686C132.772 67.2841 132.683 59.1824 131.904 52.0635C131.821 51.3027 131.87 50.7474 132.052 50.3976C132.234 50.0477 132.678 49.8342 133.384 49.7569C134.091 49.6797 135.182 50.3577 136.659 51.791C138.184 53.164 139.027 54.5841 139.187 56.0514ZM178.861 81.5733C179.176 84.4534 177.858 86.9897 174.908 89.1821C172.007 91.3142 168.573 92.5971 164.606 93.031C160.693 93.4589 157.086 93.4135 153.785 92.8947C153.286 95.3689 153.14 97.5571 153.348 99.4591C153.55 101.307 154.278 102.684 155.532 103.592C156.841 104.494 158.826 104.799 161.489 104.508C164.206 104.211 166.927 103.446 169.652 102.213C172.425 100.92 173.948 100.258 174.219 100.228C175.632 100.074 176.398 100.54 176.517 101.627C176.677 103.094 175.195 104.879 172.071 106.98C168.94 109.027 165.799 110.223 162.647 110.568C158.408 111.032 154.821 110.159 151.884 107.951C148.942 105.688 147.26 102.627 146.838 98.7687C146.416 94.9104 147.009 90.7761 148.616 86.3659C150.218 81.9013 152.491 78.0506 155.437 74.8139C158.382 71.5771 161.458 69.7834 164.665 69.4327C167.871 69.0821 170.944 70.2857 173.886 73.0436C176.881 75.7956 178.54 78.6388 178.861 81.5733ZM165.776 75.8278C163.766 76.0477 161.789 77.3362 159.848 79.6933C157.9 81.996 156.334 84.7794 155.152 88.0433C157.379 88.2947 159.878 88.2688 162.65 87.9657C165.421 87.6626 167.792 86.9633 169.762 85.868C171.726 84.7183 172.627 83.4099 172.467 81.9426C172.306 80.4754 171.464 79.0552 169.939 77.6822C168.468 76.3033 167.081 75.6851 165.776 75.8278ZM209.676 64.5098C210.6 64.4088 211.535 64.664 212.482 65.2753C213.423 65.8323 213.938 66.5184 214.027 67.3336C214.187 68.8008 212.76 74.0988 209.744 83.2275C206.782 92.3502 204.625 98.5253 203.273 101.753C201.97 104.92 200.693 106.572 199.443 106.709C198.737 106.786 197.811 106.365 196.666 105.445C195.52 104.525 194.637 103.495 194.018 102.353C192.176 99.0895 189.997 93.746 187.48 86.3223C184.963 78.8986 183.512 73.4206 183.126 69.8883C182.947 68.2581 183.347 67.3894 184.325 67.2824C185.521 67.1517 186.8 67.5342 188.163 68.43C189.52 69.2715 190.526 70.4263 191.181 71.8944C191.439 72.746 191.895 74.896 192.547 78.3442C194.247 86.8471 196.273 93.3071 198.626 97.7241C199.748 94.4118 201.136 89.7507 202.788 83.7407C204.435 77.6764 205.792 72.9911 206.86 69.6847C207.977 66.318 208.915 64.593 209.676 64.5098ZM237.625 61.4531C240.071 61.1856 242.463 62.1888 244.801 64.4627C247.133 66.6823 248.41 68.7974 248.63 70.8081C248.844 72.7645 248.384 74.8494 247.251 77.063C247.993 77.8068 248.396 78.4776 248.461 79.0754C248.628 80.597 248.56 83.2441 248.258 87.0166C248.01 90.7833 247.867 93.2461 247.828 94.4051C247.844 95.5582 247.837 96.4939 247.805 97.2122C247.768 97.8762 247.703 98.5432 247.612 99.2132C247.543 100.595 247.128 101.328 246.367 101.411C245.389 101.518 244.482 100.765 243.646 99.152C242.858 97.4784 242.261 95.289 241.855 92.5838C237.69 99.2534 233.543 102.814 229.412 103.266C226.913 103.539 224.324 102.75 221.647 100.898C219.018 98.9859 217.579 96.8886 217.329 94.6062C216.973 91.3456 217.728 87.1935 219.597 82.1499C221.459 77.0518 224.087 72.42 227.481 68.2543C230.874 64.0886 234.256 61.8216 237.625 61.4531ZM242.944 75.3894C242.391 70.3356 241.109 67.9186 239.099 68.1385C236.979 68.3703 234.673 70.1623 232.18 73.5145C229.681 76.8124 227.662 80.4704 226.121 84.4883C224.581 88.5063 223.933 91.6293 224.177 93.8573C224.278 94.7811 224.741 95.5003 225.567 96.0149C226.388 96.4751 227.314 96.6488 228.346 96.5358C230.901 96.2565 233.594 94.2297 236.425 90.4554C239.251 86.6269 241.019 82.1716 241.728 77.0897C241.801 76.2568 242.21 75.7172 242.953 75.4709L242.944 75.3894ZM266.812 90.9265C266.925 91.9591 267.579 92.4099 268.775 92.2792C270.84 92.0533 273.277 91.2093 276.087 89.7472C278.945 88.2248 280.537 87.4457 280.863 87.4101C281.841 87.3031 282.387 87.7658 282.5 88.7984C282.672 90.3743 281.241 92.3731 278.206 94.7947C275.226 97.2104 272.404 98.5638 269.741 98.8551C267.133 99.1403 264.882 98.6716 262.989 97.4489C261.089 96.1718 260.056 94.7725 259.89 93.2509C259.723 91.7293 259.838 89.7645 260.235 87.3565C260.626 84.8941 261.208 81.6683 261.981 77.6792C262.803 73.6299 263.428 70.2895 263.855 67.6581C261.366 68.5352 259.687 69.0213 258.818 69.1164C257.948 69.2115 257.031 68.8719 256.066 68.0975C255.15 67.2628 254.648 66.4379 254.558 65.6228C254.416 64.3186 257.811 62.6824 264.745 60.7142C265.23 56.0968 265.282 52.0491 264.902 48.5712C264.724 46.9409 265.178 46.0663 266.265 45.9474C267.189 45.8464 268.395 46.3194 269.884 47.3663C271.368 48.3589 272.19 49.5888 272.35 51.0561C272.511 52.5233 272.331 55.1551 271.811 58.9515C274.879 58.341 277.337 57.9347 279.185 57.7326C282.445 57.376 284.153 57.9042 284.307 59.3171C284.396 60.1322 283.574 60.9096 281.84 61.6491C280.161 62.3827 276.557 63.6292 271.031 65.3885C270.359 69.8064 269.457 74.8819 268.324 80.615C267.185 86.2938 266.681 89.731 266.812 90.9265ZM319.679 66.172C319.994 69.0522 318.677 71.5885 315.727 73.7808C312.826 75.9129 309.391 77.1959 305.424 77.6298C301.512 78.0577 297.905 78.0122 294.603 77.4934C294.104 79.9677 293.958 82.1558 294.166 84.0578C294.369 85.9055 295.097 87.2832 296.351 88.1909C297.659 89.0926 299.645 89.3979 302.308 89.1066C305.025 88.8095 307.746 88.0445 310.47 86.8116C313.244 85.5184 314.766 84.857 315.038 84.8272C316.451 84.6727 317.217 85.1389 317.335 86.2257C317.496 87.693 316.014 89.4774 312.889 91.5789C309.758 93.626 306.617 94.822 303.465 95.1667C299.227 95.6303 295.639 94.7578 292.703 92.5493C289.761 90.2864 288.079 87.2258 287.657 83.3675C287.235 79.5092 287.828 75.3749 289.435 70.9646C291.036 66.5001 293.31 62.6494 296.255 59.4126C299.201 56.1759 302.277 54.3822 305.483 54.0315C308.689 53.6808 311.763 54.8845 314.704 57.6424C317.7 60.3943 319.358 63.2375 319.679 66.172ZM306.595 60.4265C304.584 60.6464 302.608 61.9349 300.666 64.292C298.718 66.5948 297.153 69.3781 295.97 72.6421C298.197 72.8934 300.697 72.8675 303.468 72.5644C306.239 72.2613 308.61 71.5621 310.58 70.4668C312.544 69.3171 313.446 68.0086 313.285 66.5414C313.125 65.0741 312.282 63.654 310.757 62.281C309.287 60.902 307.899 60.2839 306.595 60.4265Z" fill="#454ADE"/>
<path d="M313.135 144.973C288.979 157.27 253.144 168.405 205.631 178.378C190.359 181.604 182.321 182.427 181.517 180.846C180.942 179.718 181.129 178.13 182.077 176.084C183.138 173.98 184.29 172.612 185.531 171.98C186.773 171.348 194.916 169.335 209.96 165.941C225.117 162.489 242.813 157.745 263.05 151.707C283.4 145.612 300.517 139.031 314.401 131.963C316.094 131.101 317.281 130.639 317.96 130.578C318.639 130.516 319.238 130.993 319.755 132.009C320.329 133.138 319.92 135.265 318.526 138.391C317.303 141.572 315.506 143.766 313.135 144.973Z" fill="#454ADE"/>
</svg>
